<mxfile host="Electron" modified="2023-11-06T19:31:11.820Z" agent="Mozilla/5.0 (Windows NT 10.0; Win64; x64) AppleWebKit/537.36 (KHTML, like Gecko) draw.io/22.0.2 Chrome/114.0.5735.289 Electron/25.8.4 Safari/537.36" etag="g2Qoa0Y1F6fE0IHMAZco" version="22.0.2" type="device">
  <diagram name="Página-1" id="OYnbUawKkBv6Plf5oSSx">
    <mxGraphModel dx="880" dy="532" grid="1" gridSize="10" guides="1" tooltips="1" connect="1" arrows="1" fold="1" page="1" pageScale="1" pageWidth="827" pageHeight="1169" math="0" shadow="0">
      <root>
        <mxCell id="0" />
        <mxCell id="1" parent="0" />
        <mxCell id="kEv6h8uaFDiCf56giK8f-1" value="&lt;font style=&quot;font-size: 20px;&quot;&gt;&lt;b&gt;Pedido&lt;/b&gt;&lt;/font&gt;" style="rounded=0;whiteSpace=wrap;html=1;fillColor=#e1d5e7;strokeColor=#9673a6;" parent="1" vertex="1">
          <mxGeometry x="40" y="140" width="160" height="40" as="geometry" />
        </mxCell>
        <mxCell id="-HTOeQSnd_q_u9gvcOCo-2" style="edgeStyle=orthogonalEdgeStyle;rounded=0;orthogonalLoop=1;jettySize=auto;html=1;entryX=0.5;entryY=0;entryDx=0;entryDy=0;endArrow=none;endFill=0;" edge="1" parent="1" source="kEv6h8uaFDiCf56giK8f-2" target="-HTOeQSnd_q_u9gvcOCo-1">
          <mxGeometry relative="1" as="geometry" />
        </mxCell>
        <mxCell id="kEv6h8uaFDiCf56giK8f-2" value="&lt;font style=&quot;font-size: 20px;&quot;&gt;&lt;b&gt;PedidoItem&lt;/b&gt;&lt;/font&gt;" style="rounded=0;whiteSpace=wrap;html=1;fillColor=#e1d5e7;strokeColor=#9673a6;" parent="1" vertex="1">
          <mxGeometry x="550" y="140" width="160" height="40" as="geometry" />
        </mxCell>
        <mxCell id="kEv6h8uaFDiCf56giK8f-4" style="edgeStyle=orthogonalEdgeStyle;rounded=0;orthogonalLoop=1;jettySize=auto;html=1;entryX=0;entryY=0.5;entryDx=0;entryDy=0;endArrow=none;endFill=0;" parent="1" source="kEv6h8uaFDiCf56giK8f-3" target="kEv6h8uaFDiCf56giK8f-2" edge="1">
          <mxGeometry relative="1" as="geometry" />
        </mxCell>
        <mxCell id="kEv6h8uaFDiCf56giK8f-5" style="edgeStyle=orthogonalEdgeStyle;rounded=0;orthogonalLoop=1;jettySize=auto;html=1;entryX=1;entryY=0.5;entryDx=0;entryDy=0;endArrow=none;endFill=0;" parent="1" source="kEv6h8uaFDiCf56giK8f-3" target="kEv6h8uaFDiCf56giK8f-1" edge="1">
          <mxGeometry relative="1" as="geometry" />
        </mxCell>
        <mxCell id="kEv6h8uaFDiCf56giK8f-3" value="&lt;font style=&quot;font-size: 20px;&quot;&gt;&lt;b&gt;Possui&lt;/b&gt;&lt;/font&gt;" style="rhombus;whiteSpace=wrap;html=1;fillColor=#ffe6cc;strokeColor=#d79b00;" parent="1" vertex="1">
          <mxGeometry x="320" y="105" width="110" height="110" as="geometry" />
        </mxCell>
        <mxCell id="kEv6h8uaFDiCf56giK8f-6" value="&lt;font style=&quot;font-size: 20px;&quot;&gt;&lt;b&gt;(1, N)&lt;/b&gt;&lt;/font&gt;" style="text;html=1;align=center;verticalAlign=middle;resizable=0;points=[];autosize=1;strokeColor=none;fillColor=none;" parent="1" vertex="1">
          <mxGeometry x="200" y="120" width="70" height="40" as="geometry" />
        </mxCell>
        <mxCell id="kEv6h8uaFDiCf56giK8f-7" value="&lt;font style=&quot;font-size: 20px;&quot;&gt;&lt;b&gt;(1, 1)&lt;/b&gt;&lt;/font&gt;" style="text;html=1;align=center;verticalAlign=middle;resizable=0;points=[];autosize=1;strokeColor=none;fillColor=none;" parent="1" vertex="1">
          <mxGeometry x="480" y="160" width="70" height="40" as="geometry" />
        </mxCell>
        <mxCell id="kEv6h8uaFDiCf56giK8f-14" value="&lt;font style=&quot;font-size: 20px;&quot;&gt;&lt;b&gt;(1, 1)&lt;/b&gt;&lt;/font&gt;" style="text;html=1;align=center;verticalAlign=middle;resizable=0;points=[];autosize=1;strokeColor=none;fillColor=none;" parent="1" vertex="1">
          <mxGeometry x="640" y="220" width="70" height="40" as="geometry" />
        </mxCell>
        <mxCell id="kEv6h8uaFDiCf56giK8f-18" value="" style="triangle;whiteSpace=wrap;html=1;fillColor=#050505;" parent="1" vertex="1">
          <mxGeometry x="280" y="127.5" width="18.75" height="25" as="geometry" />
        </mxCell>
        <mxCell id="kEv6h8uaFDiCf56giK8f-23" value="" style="triangle;whiteSpace=wrap;html=1;fillColor=#050505;direction=south;" parent="1" vertex="1">
          <mxGeometry x="662.495" y="189.995" width="25" height="18.75" as="geometry" />
        </mxCell>
        <mxCell id="kEv6h8uaFDiCf56giK8f-27" value="&lt;h3 style=&quot;box-sizing: border-box; font-family: &amp;quot;Open Sans&amp;quot;; font-weight: 400; line-height: 35px; color: rgb(36, 37, 38); margin: 0px 0px 25px; font-size: 27px; overflow-wrap: break-word; text-align: start; background-color: rgb(255, 255, 255);&quot;&gt;&lt;br&gt;&lt;/h3&gt;" style="text;html=1;align=center;verticalAlign=middle;resizable=0;points=[];autosize=1;strokeColor=none;fillColor=none;" parent="1" vertex="1">
          <mxGeometry x="200" y="708" width="20" height="70" as="geometry" />
        </mxCell>
        <mxCell id="kEv6h8uaFDiCf56giK8f-28" value="&lt;font style=&quot;font-size: 16px;&quot;&gt;&lt;b&gt;Notação Peter Chen&lt;/b&gt;&lt;/font&gt;" style="text;html=1;align=left;verticalAlign=middle;resizable=0;points=[];autosize=1;" parent="1" vertex="1">
          <mxGeometry x="624" y="630" width="180" height="30" as="geometry" />
        </mxCell>
        <mxCell id="kEv6h8uaFDiCf56giK8f-29" value="&lt;font style=&quot;font-size: 24px;&quot;&gt;&lt;b&gt;Modelo de Compras e Pagamentos&lt;/b&gt;&lt;/font&gt;" style="text;html=1;align=center;verticalAlign=middle;resizable=0;points=[];autosize=1;strokeColor=none;fillColor=none;" parent="1" vertex="1">
          <mxGeometry x="204" y="20" width="420" height="40" as="geometry" />
        </mxCell>
        <mxCell id="kEv6h8uaFDiCf56giK8f-30" value="&lt;font style=&quot;font-size: 16px;&quot;&gt;&lt;b&gt;Data 12/10/2023&lt;/b&gt;&lt;/font&gt;" style="text;html=1;align=left;verticalAlign=middle;resizable=0;points=[];autosize=1;" parent="1" vertex="1">
          <mxGeometry x="624" y="670" width="140" height="30" as="geometry" />
        </mxCell>
        <mxCell id="-HTOeQSnd_q_u9gvcOCo-3" style="edgeStyle=orthogonalEdgeStyle;rounded=0;orthogonalLoop=1;jettySize=auto;html=1;entryX=0.5;entryY=0;entryDx=0;entryDy=0;endArrow=none;endFill=0;" edge="1" parent="1" source="-HTOeQSnd_q_u9gvcOCo-1">
          <mxGeometry relative="1" as="geometry">
            <mxPoint x="630" y="490" as="targetPoint" />
          </mxGeometry>
        </mxCell>
        <mxCell id="-HTOeQSnd_q_u9gvcOCo-1" value="&lt;font style=&quot;font-size: 20px;&quot;&gt;&lt;b&gt;Copia&lt;br&gt;dados&lt;br&gt;&lt;/b&gt;&lt;/font&gt;" style="rhombus;whiteSpace=wrap;html=1;fillColor=#ffe6cc;strokeColor=#d79b00;" vertex="1" parent="1">
          <mxGeometry x="575" y="290" width="110" height="110" as="geometry" />
        </mxCell>
        <mxCell id="-HTOeQSnd_q_u9gvcOCo-4" value="&lt;font style=&quot;font-size: 20px;&quot;&gt;&lt;b&gt;Produto&lt;/b&gt;&lt;/font&gt;" style="rounded=0;whiteSpace=wrap;html=1;fillColor=#e1d5e7;strokeColor=#9673a6;" vertex="1" parent="1">
          <mxGeometry x="550" y="490" width="160" height="40" as="geometry" />
        </mxCell>
      </root>
    </mxGraphModel>
  </diagram>
</mxfile>
